<svg xmlns="http://www.w3.org/2000/svg" data-name="Layer 1" viewBox="0 0 32 32"><defs><linearGradient id="a" x1="27.26" x2="5.83" y1="13" y2="25.37" gradientUnits="userSpaceOnUse"><stop offset="0" stop-color="#fff" stop-opacity=".25"/><stop offset="1" stop-color="#9495fa"/></linearGradient></defs><path fill="#ff9d23" d="M6.91,2.19a.4.4,0,0,1-.27-.11.39.39,0,0,1,0-.53L7.48.71A.37.37,0,0,1,8,.71l.75.74A.37.37,0,1,1,8.23,2L7.75,1.5l-.58.58A.38.38,0,0,1,6.91,2.19Z"/><path fill="#9495fa" d="M30 16.94a.4.4 0 0 1-.27-.11.39.39 0 0 1 0-.53l.84-.84a.37.37 0 0 1 .53 0l.75.74a.37.37 0 0 1-.53.53l-.48-.48-.58.58A.38.38 0 0 1 30 16.94zM.37 14.17a.34.34 0 0 1-.26-.11.37.37 0 0 1 0-.53l1.12-1.12a.39.39 0 0 1 .53 0 .37.37 0 0 1 0 .53L.64 14.06A.35.35 0 0 1 .37 14.17z"/><path fill="#ff4b4d" d="M26.47,7.78a.37.37,0,0,1-.26-.63l1.31-1.31a.36.36,0,0,1,.52,0,.37.37,0,0,1,0,.53l-1.3,1.31A.39.39,0,0,1,26.47,7.78Z"/><path fill="#0000db" d="M3.2,28.26a.4.4,0,0,1-.27-.11.39.39,0,0,1,0-.53l1.31-1.31a.39.39,0,0,1,.53,0,.37.37,0,0,1,0,.53L3.46,28.15A.38.38,0,0,1,3.2,28.26Z"/><path fill="#ff9d23" d="M23.45,31.4a.34.34,0,0,1-.26-.11.36.36,0,0,1,0-.52l1.31-1.31a.37.37,0,0,1,.53,0A.39.39,0,0,1,25,30l-1.31,1.3A.35.35,0,0,1,23.45,31.4Z"/><path fill="url(#a)" d="M21.58,9.25a7.63,7.63,0,0,0-2.31-1.81,5,5,0,0,0-3.4-.05,14.88,14.88,0,0,0-3.12,1.49l-8.61,5a5.74,5.74,0,0,0-1.73,1.31A3.77,3.77,0,0,0,2.18,19a8.5,8.5,0,0,0,2.68,3A27.55,27.55,0,0,1,8,24.49c.89.89,1.58,2,2.47,2.85A9.33,9.33,0,0,0,21,29.07c2.47-1.24,4.23-3.52,5.9-5.72,1.22-1.6,2.49-3.36,2.5-5.37a4.8,4.8,0,0,0-3.05-4.39C24.46,12.8,23,10.72,21.58,9.25Z"/><path fill="#f86c66" stroke="#0000db" stroke-linecap="round" stroke-linejoin="round" stroke-width=".66" d="M24.36,6.36v9.81a4.39,4.39,0,0,0-5.77.38A4.4,4.4,0,0,0,18,22a3.81,3.81,0,0,0,.29.41h-12a.87.87,0,0,1-.86-.86V6.36a.87.87,0,0,1,.86-.87H23.5A.87.87,0,0,1,24.36,6.36Z"/><path fill="#fff" d="M14.18 19.07H8.84a.25.25 0 0 1 0-.5h5.34a.25.25 0 0 1 0 .5zM12.28 16.88H8.84a.25.25 0 1 1 0-.49h3.44a.25.25 0 1 1 0 .49z"/><path fill="#9495fa" stroke="#0000db" stroke-linecap="round" stroke-linejoin="round" stroke-width=".66" d="M26,20.7a4.57,4.57,0,0,1-1.57,2.42,4.39,4.39,0,0,1-5.81-.36c-.11-.12-.22-.23-.32-.36h0A3.81,3.81,0,0,1,18,22a4.4,4.4,0,0,1,.62-5.43,4.39,4.39,0,0,1,5.77-.38h0c.14.12.28.24.41.37A4.41,4.41,0,0,1,26,20.7Z"/><path fill="#fff" d="M24.76,20.41a3.11,3.11,0,0,1-.83,1.47,3.16,3.16,0,0,1-4.46,0,3.45,3.45,0,0,1-.45-.56,3.17,3.17,0,0,1,.45-3.89,3.11,3.11,0,0,1,1.13-.72,3.15,3.15,0,0,1,4.16,3.7Z"/><line x1="25.69" x2="24.8" y1="23.65" y2="22.76" fill="none" stroke="#0000db" stroke-linecap="round" stroke-linejoin="round" stroke-width=".66"/><path fill="#ff9d23" stroke="#0000db" stroke-linecap="round" stroke-linejoin="round" stroke-width=".66" d="M26.54,22.8,28.78,25a1.2,1.2,0,0,1-1.7,1.69L24.84,24.5Z"/><polygon fill="#fed3be" stroke="#0000db" stroke-linecap="round" stroke-linejoin="round" stroke-width=".66" points="18.52 5.49 18.52 9.96 17.31 9.07 16.23 9.96 14.89 9.07 13.55 9.96 12.47 9.07 11.26 9.96 11.26 5.49 18.52 5.49"/></svg>