<svg xmlns="http://www.w3.org/2000/svg" viewBox="0 0 32 32"><path fill="#8c9eff" d="M25.7 11.49a10.49 10.49 0 0 0-2.84-6.63 9.71 9.71 0 0 0-13.72 0 10.49 10.49 0 0 0-2.84 6.63c-.27 3.13 1.22 5.8 2.78 8.27.37.58 3.64 5.78 5.22 8.35a2 2 0 0 0 1.7.95 2 2 0 0 0 1.7-.95c1.58-2.57 4.85-7.77 5.22-8.35 1.56-2.47 3.08-5.14 2.78-8.27Z"/><path fill="#5f7cf9" d="M17.7 28.11c1.58-2.57 4.85-7.77 5.22-8.35 1.56-2.47 3-5.14 2.78-8.27a10.49 10.49 0 0 0-2.84-6.63A9.64 9.64 0 0 0 16 2v27a2 2 0 0 0 1.7-.89Z"/><circle cx="16" cy="12" r="4" fill="#5f7cf9"/><path fill="#4062ed" d="M20 12a4 4 0 0 0-4-4v8a4 4 0 0 0 4-4Z"/></svg>