<?xml version="1.0" encoding="utf-8"?>
<!-- Generator: Adobe Illustrator 26.0.1, SVG Export Plug-In . SVG Version: 6.00 Build 0)  -->
<svg version="1.1" id="Layer_1" xmlns="http://www.w3.org/2000/svg" xmlns:xlink="http://www.w3.org/1999/xlink" x="0px" y="0px"
	 viewBox="0 0 1920 1080" style="enable-background:new 0 0 1920 1080;" xml:space="preserve">
<style type="text/css">
	.st0{fill:#F5B01C;}
	.st1{fill:#1BCFED;}
	.st2{fill:#4170F7;}
	.st3{fill:white;}
	.st4{fill:#EE4419;}
	.st5{font-family:'Impact';}
	.st6{font-size:50.7768px;}
	.st7{fill:white;}
	.st8{font-size:520px;}
</style>
<rect x="1245.44" y="152.95" class="st0" width="231.59" height="311.68"/>
<path class="st1" d="M964.88,503.33V164.79c0,0,10.77-65.28,63.27-65.28h90.19c0,0,66.29-0.67,66.29,66.29s0,264.84,0,264.84
	l100.62,102.3H964.88V503.33z"/>
<polygon class="st2" points="465.49,314.71 727.97,314.71 767.01,314.71 797.97,314.71 892.19,227.38 907,227.38 907,506.02 
	907,544.3 465.49,544.3 "/>
<path class="st3" d="M437.9,226.04l-22.21-61.25H625c0,0,32.98,1.01,33.32,38.36v104.32c0,0,3.7,36.68-34.66,36.68H478.28v61.25
	h180.13v59.23H419.39v-141c0,0-4.37-37.69,39.71-37.69h138.98v-59.23H437.56"/>
<path class="st3" d="M759.83,164.79v159.96h117.56V164.79h63.71v299.84h-62.37v-78.86H736.5c0,0-39.04,2.69-38.14-38.59V166.36
	v-1.57H759.83z"/>
<path class="st4" d="M704.7,776.98v67.08c0,0,2.02,40.45,42.47,42.47h72.81h12.14c0,0,34.38-6.07,34.38-36.41
	c0-30.34,0-219.85,0-219.85s3.44-49.85-49.85-49.85c-53.29,0-194.87,0-194.87,0l89.85,89.85l-10.97,93.9v8.09"/>
<path class="st3" d="M1276.72,164.79h150.76c0,0,33.2,5.61,33.2,41.5v258.33h-61.92v-236.8h-141.79L1276.72,164.79z"/>
<path class="st0" d="M964.88,899.37l98.26-103.65h335.17V643.62c0,0,9.42-68.65-78.07-68.65c-87.49,0-263.83,0-263.83,0
	s-91.53-6.73-91.53,84.8"/>
<path class="st3" d="M678.17,488.07c0,0-140.89,0-201.91,0c-61.02,0-59.68,50.25-59.68,50.25v340.11h81.66v-103.2h155.7v103.2h80.76
	v-342.8C734.71,482.24,678.17,488.07,678.17,488.07z M654.84,695.37H498.25V567.04h156.59V695.37z"/>
<path class="st3" d="M1047.67,487.88h-264.5v390.55h251.38c0,0,59.23,10.54,59.56-51.04V526.55
	C1094.11,526.55,1095.11,487.88,1047.67,487.88z M1017.38,799.46H861.24V567.04h156.14V799.46z"/>
<path class="st3" d="M1200.44,487.88h260.24l-24.68,79.16h-214.03v73.59h174.99c0,0,63.71-7.4,63.71,47.11v136.63
	c0,0,8.97,54.75-61.69,54.75s-252.39,0-252.39,0v-79.66h232.87v-79.42h-179.03c0,0-53.84,7.4-53.84-41.73V536.31
	C1146.6,536.31,1139.87,490.61,1200.44,487.88z"/>

<text transform="matrix(1 0 0 1 952.8669 532.9401)" class="st7 st5 st8">×</text>
</svg>
