<?xml version="1.0" encoding="utf-8"?>
<!-- Generator: Adobe Illustrator 26.0.1, SVG Export Plug-In . SVG Version: 6.00 Build 0)  -->
<svg version="1.1" id="Layer_1" xmlns="http://www.w3.org/2000/svg" xmlns:xlink="http://www.w3.org/1999/xlink" x="0px" y="0px"
	 viewBox="0 0 1920 1080" style="enable-background:new 0 0 1920 1080;" xml:space="preserve">
<style type="text/css">
	.st0{fill:#F5B01C;}
	.st1{fill:#1BCFED;}
	.st2{fill:#4170F7;}
	.st3{fill:#EE4419;}
	.st4{fill:#FFFFFF;}
	.st5{font-family:'Impact';}
	.st6{font-size:50.7768px;}
	.st7{font-size:520px;}
</style>
<rect x="1245.4" y="152.9" class="st0" width="231.6" height="311.7"/>
<path class="st1" d="M964.9,503.3V164.8c0,0,10.8-65.3,63.3-65.3h90.2c0,0,66.3-0.7,66.3,66.3s0,264.8,0,264.8l100.6,102.3H964.9
	V503.3z"/>
<polygon class="st2" points="465.5,314.7 728,314.7 767,314.7 798,314.7 892.2,227.4 907,227.4 907,506 907,544.3 465.5,544.3 "/>
<path d="M437.9,226l-22.2-61.2H625c0,0,33,1,33.3,38.4v104.3c0,0,3.7,36.7-34.7,36.7H478.3v61.2h180.1v59.2h-239v-141
	c0,0-4.4-37.7,39.7-37.7h139v-59.2H437.6"/>
<path d="M759.8,164.8v160h117.6v-160h63.7v299.8h-62.4v-78.9H736.5c0,0-39,2.7-38.1-38.6V166.4v-1.6H759.8z"/>
<path class="st3" d="M704.7,777v67.1c0,0,2,40.5,42.5,42.5H820h12.1c0,0,34.4-6.1,34.4-36.4c0-30.3,0-219.9,0-219.9
	s3.4-49.8-49.8-49.8s-194.9,0-194.9,0l89.8,89.8l-11,93.9v8.1"/>
<path d="M1276.7,164.8h150.8c0,0,33.2,5.6,33.2,41.5v258.3h-61.9V227.8H1257L1276.7,164.8z"/>
<path class="st0" d="M964.9,899.4l98.3-103.7h335.2V643.6c0,0,9.4-68.7-78.1-68.7s-263.8,0-263.8,0s-91.5-6.7-91.5,84.8"/>
<path d="M678.2,488.1c0,0-140.9,0-201.9,0s-59.7,50.2-59.7,50.2v340.1h81.7V775.2h155.7v103.2h80.8V535.6
	C734.7,482.2,678.2,488.1,678.2,488.1z M654.8,695.4H498.2V567h156.6L654.8,695.4L654.8,695.4z"/>
<path d="M1047.7,487.9H783.2v390.5h251.4c0,0,59.2,10.5,59.6-51V526.5C1094.1,526.5,1095.1,487.9,1047.7,487.9z M1017.4,799.5H861.2
	V567h156.1V799.5z"/>
<path d="M1200.4,487.9h260.2L1436,567h-214v73.6h175c0,0,63.7-7.4,63.7,47.1v136.6c0,0,9,54.8-61.7,54.8s-252.4,0-252.4,0v-79.7
	h232.9V720h-179c0,0-53.8,7.4-53.8-41.7v-142C1146.6,536.3,1139.9,490.6,1200.4,487.9z"/>
<text transform="matrix(1 0 0 1 952.8669 532.9401)" class="st5 st7">×</text>
</svg>
