<svg xmlns="http://www.w3.org/2000/svg" viewBox="0 0 64 64"><g data-name="Operator"><path fill="#787680" d="M51,26H49V18A13.015,13.015,0,0,0,36,5H28A13.015,13.015,0,0,0,15,18v8H13V18A15.017,15.017,0,0,1,28,3h8A15.017,15.017,0,0,1,51,18Z"/><path fill="#f1cfa2" d="M28,47H39V41H25v6Z"/><rect width="32" height="32" x="16" y="10" fill="#a97c50" rx="12.512" ry="12.512"/><rect width="14" height="3" x="25" y="41" fill="#e0c095"/><path fill="#85eceb" d="M11,28v3a3,3,0,0,0,3,3h4V25H14A3,3,0,0,0,11,28Z"/><polygon fill="#ffc477" points="30 50.5 30.67 50 32 49 33.33 50 34 50.5 36 52 36 47 28 47 28 52 30 50.5"/><path fill="#ffdaaa" d="M42,22H21V35a6.97,6.97,0,0,0,4,6.32A6.844,6.844,0,0,0,28,42h8a6.844,6.844,0,0,0,3-.68A7,7,0,0,0,43,35V22Z"/><path fill="#85eceb" d="M53,31V28a3,3,0,0,0-3-3H46v9h4A3,3,0,0,0,53,31Z"/><path fill="#00aeef" d="M48 47H36v5l-2-1.5V54l1 7H60V59A12 12 0 0 0 48 47zM28 52V47H16A12 12 0 0 0 4 59v2H29l1-7V50.5z"/><polygon fill="#d43237" points="30 54 29 61 35 61 34 54 30 54"/><polygon fill="#cd2a00" points="33.33 50 32 49 30.67 50 30 50.5 30 54 34 54 34 50.5 33.33 50"/><path fill="#ff7956" d="M46.969,39H34V37H46.969a1,1,0,0,0,1-1.016l-.031-1.968,2-.032.031,1.969a3,3,0,0,1-3,3.047Z"/><rect width="2" height="4" x="31" y="18" fill="#8b5e3c"/><rect width="2" height="4" x="26" y="18" fill="#8b5e3c"/><rect width="2" height="4" x="21" y="18" fill="#8b5e3c"/><rect width="2" height="4" x="36" y="18" fill="#8b5e3c"/><rect width="2" height="4" x="41" y="18" fill="#8b5e3c"/><rect width="2" height="6" x="49" y="55" fill="#1e81ce"/><rect width="2" height="6" x="13" y="55" fill="#1e81ce"/></g></svg>