<svg xmlns="http://www.w3.org/2000/svg" viewBox="0 0 110 110"><g data-name="8. Pay per Click"><circle cx="55" cy="59" r="50" fill="#e7efff"/><circle cx="9" cy="12" r="3" fill="#ff4d69"/><circle cx="106" cy="4" r="3" fill="#00c99f"/><circle cx="98" cy="106" r="3" fill="#ffa100"/><circle cx="4" cy="95" r="3" fill="#00c99f"/><path fill="#4e6aff" d="M64,69V91a24.93,24.93,0,0,1-7.63,18A49.92,49.92,0,0,1,14,87.61V69a25,25,0,0,1,50,0Z"/><circle cx="82" cy="26" r="20" fill="#ffa100"/><path fill="#323fd4" d="M64 82v9a24.93 24.93 0 01-7.63 18A49.92 49.92 0 0114 87.61V82A82.08 82.08 0 0064 82zM41 44.09V78a2 2 0 01-4 0V44.09A22.26 22.26 0 0141 44.09z"/><path fill="#8fa2ff" d="M39,70a4,4,0,0,1-4-4V60a4,4,0,0,1,8,0v6A4,4,0,0,1,39,70Z"/><path fill="#fff" d="M82,23a2,2,0,0,1,0-4h4a2,2,0,0,0,0-4H84V14a2,2,0,0,0-4,0v1.35A6,6,0,0,0,82,27a2,2,0,0,1,0,4H78a2,2,0,0,0,0,4h2v1a2,2,0,0,0,4,0V34.65A6,6,0,0,0,82,23Z"/><path fill="#a5bced" d="M55,22a3,3,0,0,0-2.82,2H43a5,5,0,0,0-5,5v5.18a3,3,0,1,0,2,0V29a3,3,0,0,1,3-3h9.18A3,3,0,1,0,55,22Z"/><path fill="#fff" d="M91 53H73a1 1 0 010-2H91a1 1 0 010 2zM91 59H73a1 1 0 010-2H91a1 1 0 010 2z"/><circle cx="56" cy="90" r="1" fill="#fff"/><circle cx="56" cy="94" r="1" fill="#fff"/><circle cx="56" cy="98" r="1" fill="#fff"/></g></svg>