<svg xmlns="http://www.w3.org/2000/svg" viewBox="0 0 128 128"><rect width="20.94" height="14.28" x="53.53" y="106.69" fill="#6288cc"/><rect width="89.8" height="58.43" x="19.1" y="51.05" fill="#a8b7ee" rx="5.59"/><path fill="#3b579f" d="M108.9,56.64V93.83H19.1V56.64a5.59,5.59,0,0,1,5.59-5.59h78.62A5.59,5.59,0,0,1,108.9,56.64Z"/><path fill="#6288cc" d="M66.27,103.79H61.73a1.5,1.5,0,0,1,0-3h4.54a1.5,1.5,0,0,1,0,3Z"/><path fill="#a8b7ee" d="M82.06,122.47H45.94a1.5,1.5,0,0,1,0-3H82.06a1.5,1.5,0,0,1,0,3Z"/><path fill="#49b2f7" d="M49.45 75.59H31.74a1.5 1.5 0 110-3H49.45a1.5 1.5 0 010 3zM102.43 75.59H80.7a1.5 1.5 0 010-3h21.73a1.5 1.5 0 010 3z"/><path fill="#8ace67" d="M50.05,65.6h4.49A1.35,1.35,0,0,1,55.89,67V85.19a0,0,0,0,1,0,0H48.7a0,0,0,0,1,0,0V67A1.35,1.35,0,0,1,50.05,65.6Z"/><path fill="#6faf45" d="M63.37,62.67h4.49A1.35,1.35,0,0,1,69.21,64V85.19a0,0,0,0,1,0,0H62a0,0,0,0,1,0,0V64A1.35,1.35,0,0,1,63.37,62.67Z"/><path fill="#b4d667" d="M76.69,68h4.49a1.35,1.35,0,0,1,1.35,1.35V85.19a0,0,0,0,1,0,0H75.34a0,0,0,0,1,0,0V69.38A1.35,1.35,0,0,1,76.69,68Z"/><rect width="18.92" height="22.84" x="101.78" y="62.67" fill="#ffdc41"/><path fill="#fbefbc" d="M115.29 69.69h-8.1a1.5 1.5 0 010-3h8.1a1.5 1.5 0 110 3zM115.29 75.59h-8.1a1.5 1.5 0 010-3h8.1a1.5 1.5 0 010 3zM115.29 81.5h-8.1a1.5 1.5 0 010-3h8.1a1.5 1.5 0 110 3z"/><path fill="#ffb331" d="M32.87,74.09A12.79,12.79,0,1,1,20.08,61.31,12.79,12.79,0,0,1,32.87,74.09Z"/><path fill="#3b579f" d="M27.41,72.59H25.63a5.81,5.81,0,0,0-.56-1.36L26.33,70a1.5,1.5,0,0,0-2.12-2.12L23,69.11a5.89,5.89,0,0,0-1.37-.56V66.77a1.5,1.5,0,0,0-3,0v1.78a6,6,0,0,0-1.36.56L16,67.85A1.5,1.5,0,0,0,13.84,70l1.26,1.26a5.81,5.81,0,0,0-.56,1.36H12.76a1.5,1.5,0,0,0,0,3h1.78A5.64,5.64,0,0,0,15.1,77l-1.26,1.26a1.5,1.5,0,0,0,1.06,2.56A1.48,1.48,0,0,0,16,80.34l1.26-1.26a6,6,0,0,0,1.36.56v1.78a1.5,1.5,0,0,0,3,0V79.64A5.89,5.89,0,0,0,23,79.08l1.26,1.26a1.48,1.48,0,0,0,1.06.43,1.5,1.5,0,0,0,1.06-2.56L25.07,77a5.64,5.64,0,0,0,.56-1.36h1.78a1.5,1.5,0,0,0,0-3Zm-7.33,4.26a2.76,2.76,0,1,1,2.76-2.76A2.76,2.76,0,0,1,20.08,76.85Z"/><path fill="#ff9102" d="M86.5,86.69H44.73a1.5,1.5,0,1,1,0-3H86.5a1.5,1.5,0,0,1,0,3Z"/><path fill="#3b579f" d="M36.92 35.11H25.05a6.83 6.83 0 01-6.81-6.82 1.5 1.5 0 013 0 3.82 3.82 0 003.81 3.82H36.92a3.83 3.83 0 003.82-3.82 4.25 4.25 0 00-3-4.06L23.3 19.62a7.24 7.24 0 01-5.06-6.92 6.83 6.83 0 016.81-6.82H36.92a6.83 6.83 0 016.82 6.82 1.5 1.5 0 01-3 0 3.83 3.83 0 00-3.82-3.82H25.05a3.82 3.82 0 00-3.81 3.82 4.25 4.25 0 003 4.06l14.47 4.61a7.24 7.24 0 015.06 6.92A6.83 6.83 0 0136.92 35.11zM76.65 32.22H55.17a3.37 3.37 0 01-3.36-3.36V22.05H70.49a1.5 1.5 0 000-3H51.81V12.24a3.37 3.37 0 013.36-3.36H76.65a1.5 1.5 0 000-3H55.17a6.36 6.36 0 00-6.36 6.36V28.86a6.36 6.36 0 006.36 6.36H76.65a1.5 1.5 0 000-3z"/><path fill="#3b579f" d="M113.26,36.43l-6.07-6.07a16,16,0,1,0-2,2.21l6,6a1.5,1.5,0,0,0,2.12,0A1.49,1.49,0,0,0,113.26,36.43ZM85.39,29.92a12.89,12.89,0,1,1,18.23,0A12.91,12.91,0,0,1,85.39,29.92Z"/><rect width="5.49" height="11.69" x="111.51" y="33.7" fill="#ffb331" rx="2.44" transform="rotate(-45 114.25 39.546)"/></svg>